<svg xmlns="http://www.w3.org/2000/svg" version="1.1" xmlns:xlink="http://www.w3.org/1999/xlink" viewBox="0 0 200 200" width="200" height="200"><rect width="200" height="200" fill="url('#gradient')"></rect><defs><linearGradient id="gradient" gradientTransform="rotate(45 0.5 0.5)"><stop offset="0%" stop-color="#222831"></stop><stop offset="100%" stop-color="#222831"></stop></linearGradient></defs><g><g fill="#eeeeee" transform="matrix(2.2607629093585184,0,0,2.2607629093585184,9.730982288837026,116.73198879831016)" stroke="#393e46" stroke-width="0.2"><path d="M1.46-13.19L4.76-13.19L4.76-10.57L6.49-10.57L6.49-8.28L4.76-8.28L4.76-3.45Q4.76-2.85 4.97-2.62Q5.19-2.38 5.82-2.38L5.82-2.38Q6.31-2.38 6.64-2.44L6.64-2.44L6.64-0.09Q5.75 0.20 4.79 0.20L4.79 0.20Q3.09 0.20 2.28-0.61Q1.46-1.41 1.46-3.04L1.46-3.04L1.46-8.28L0.12-8.28L0.12-10.57L1.46-10.57L1.46-13.19ZM11.26-10.57L11.26 0L7.96 0L7.96-10.57L11.26-10.57ZM7.76-13.29L7.76-13.29Q7.76-13.99 8.27-14.44Q8.78-14.89 9.59-14.89Q10.40-14.89 10.91-14.44Q11.42-13.99 11.42-13.29Q11.42-12.59 10.91-12.14Q10.40-11.69 9.59-11.69Q8.78-11.69 8.27-12.14Q7.76-12.59 7.76-13.29ZM13.22-10.57L16.31-10.57L16.42-9.33Q17.51-10.76 19.43-10.76L19.43-10.76Q21.08-10.76 21.90-9.78Q22.71-8.79 22.74-6.81L22.74-6.81L22.74 0L19.44 0L19.44-6.67Q19.44-7.47 19.12-7.85Q18.80-8.22 17.95-8.22L17.95-8.22Q16.98-8.22 16.51-7.46L16.51-7.46L16.51 0L13.22 0L13.22-10.57ZM24.15-5.36L24.15-5.36Q24.15-7.87 25.23-9.32Q26.32-10.76 28.26-10.76L28.26-10.76Q29.68-10.76 30.64-9.65L30.64-9.65L30.64-15L33.95-15L33.95 0L30.99 0L30.82-1.13Q29.80 0.20 28.24 0.20L28.24 0.20Q26.36 0.20 25.25-1.25Q24.15-2.70 24.15-5.36ZM27.45-5.76L27.44-5.16Q27.44-2.34 29.08-2.34L29.08-2.34Q30.18-2.34 30.64-3.26L30.64-3.26L30.64-7.29Q30.20-8.22 29.10-8.22L29.10-8.22Q27.58-8.22 27.45-5.76L27.45-5.76ZM40.93 0.20L40.93 0.20Q38.50 0.20 36.99-1.25Q35.49-2.71 35.49-5.03L35.49-5.03L35.49-5.30Q35.49-6.92 36.09-8.16Q36.69-9.40 37.84-10.08Q38.99-10.76 40.58-10.76L40.58-10.76Q42.80-10.76 44.09-9.38Q45.38-8.00 45.38-5.53L45.38-5.53L45.38-4.25L38.84-4.25Q39.01-3.36 39.61-2.85Q40.21-2.34 41.15-2.34L41.15-2.34Q42.71-2.34 43.59-3.44L43.59-3.44L45.10-1.66Q44.48-0.81 43.35-0.31Q42.23 0.20 40.93 0.20ZM40.56-8.22L40.56-8.22Q39.11-8.22 38.84-6.31L38.84-6.31L42.16-6.31L42.16-6.56Q42.18-7.35 41.76-7.79Q41.34-8.22 40.56-8.22ZM53.15-10.64L53.10-7.59L52.01-7.67Q50.46-7.67 50.02-6.69L50.02-6.69L50.02 0L46.73 0L46.73-10.57L49.81-10.57L49.92-9.21Q50.75-10.76 52.24-10.76L52.24-10.76Q52.76-10.76 53.15-10.64L53.15-10.64ZM57.75-10.57L57.75 0L54.45 0L54.45-10.57L57.75-10.57ZM54.26-13.29L54.26-13.29Q54.26-13.99 54.77-14.44Q55.27-14.89 56.08-14.89Q56.89-14.89 57.40-14.44Q57.91-13.99 57.91-13.29Q57.91-12.59 57.40-12.14Q56.89-11.69 56.08-11.69Q55.27-11.69 54.77-12.14Q54.26-12.59 54.26-13.29ZM64.25-2.34L64.25-2.34Q64.94-2.34 65.32-2.72Q65.70-3.10 65.69-3.77L65.69-3.77L68.78-3.77Q68.78-2.03 67.53-0.92Q66.29 0.20 64.33 0.20L64.33 0.20Q62.02 0.20 60.69-1.25Q59.37-2.70 59.37-5.25L59.37-5.25L59.37-5.39Q59.37-6.99 59.96-8.22Q60.55-9.44 61.66-10.10Q62.77-10.76 64.30-10.76L64.30-10.76Q66.36-10.76 67.57-9.62Q68.78-8.48 68.78-6.52L68.78-6.52L65.69-6.52Q65.69-7.34 65.29-7.78Q64.89-8.22 64.22-8.22L64.22-8.22Q62.94-8.22 62.72-6.59L62.72-6.59Q62.66-6.07 62.66-5.17L62.66-5.17Q62.66-3.57 63.04-2.96Q63.42-2.34 64.25-2.34ZM75.28 0.20L75.28 0.20Q72.85 0.20 71.35-1.25Q69.84-2.71 69.84-5.03L69.84-5.03L69.84-5.30Q69.84-6.92 70.44-8.16Q71.04-9.40 72.20-10.08Q73.35-10.76 74.93-10.76L74.93-10.76Q77.16-10.76 78.45-9.38Q79.74-8.00 79.74-5.53L79.74-5.53L79.74-4.25L73.19-4.25Q73.37-3.36 73.96-2.85Q74.56-2.34 75.51-2.34L75.51-2.34Q77.07-2.34 77.95-3.44L77.95-3.44L79.45-1.66Q78.84-0.81 77.71-0.31Q76.58 0.20 75.28 0.20ZM74.91-8.22L74.91-8.22Q73.47-8.22 73.19-6.31L73.19-6.31L76.51-6.31L76.51-6.56Q76.53-7.35 76.11-7.79Q75.69-8.22 74.91-8.22Z"></path></g></g></svg>